<?xml version="1.0" encoding="UTF-8" standalone="no"?>
<svg
   xmlns:dc="http://purl.org/dc/elements/1.1/"
   xmlns:cc="http://creativecommons.org/ns#"
   xmlns:rdf="http://www.w3.org/1999/02/22-rdf-syntax-ns#"
   xmlns:svg="http://www.w3.org/2000/svg"
   xmlns="http://www.w3.org/2000/svg"
   xmlns:sodipodi="http://sodipodi.sourceforge.net/DTD/sodipodi-0.dtd"
   xmlns:inkscape="http://www.inkscape.org/namespaces/inkscape"
   version="1.1"
   x="0px"
   y="0px"
   width="424.13"
   height="424.13"
   viewBox="0 0 424.13002 424.12999"
   xml:space="preserve"
   id="svg2"
   inkscape:version="0.48.4 r9939"
   sodipodi:docname="location-arrow.svg"><metadata
     id="metadata12"><rdf:RDF><cc:Work
         rdf:about=""><dc:format>image/svg+xml</dc:format><dc:type
           rdf:resource="http://purl.org/dc/dcmitype/StillImage" /></cc:Work></rdf:RDF></metadata><defs
     id="defs10" /><sodipodi:namedview
     pagecolor="#ffffff"
     bordercolor="#666666"
     borderopacity="1"
     objecttolerance="10"
     gridtolerance="10"
     guidetolerance="10"
     inkscape:pageopacity="0"
     inkscape:pageshadow="2"
     inkscape:window-width="1863"
     inkscape:window-height="1056"
     id="namedview8"
     showgrid="false"
     inkscape:zoom="1.6602837"
     inkscape:cx="127.88791"
     inkscape:cy="201.02251"
     inkscape:window-x="57"
     inkscape:window-y="24"
     inkscape:window-maximized="1"
     inkscape:current-layer="svg2" /><g
     id="g4"
     transform="matrix(0.70710678,-0.70710678,0.70710678,0.70710678,-65.379817,276.77063)"><path
       d="m 401.789,15.302 c -0.664,-3.906 -2.43,-7.187 -5.283,-9.854 -3.426,-3.612 -7.707,-5.424 -12.848,-5.424 -3.045,0 -5.804,0.662 -8.281,1.997 L 9.933,184.746 c -3.811,1.906 -6.567,4.755 -8.282,8.563 -1.713,3.809 -2.092,7.808 -1.143,11.99 0.951,4.188 3.095,7.562 6.423,10.143 3.33,2.566 7.09,3.854 11.277,3.854 h 164.445 v 164.452 c 0,4.192 1.287,7.949 3.855,11.282 2.572,3.33 5.951,5.476 10.138,6.424 1.903,0.373 3.333,0.568 4.283,0.568 7.612,0 13.04,-3.33 16.274,-9.996 L 399.935,26.578 c 1.902,-3.615 2.515,-7.374 1.854,-11.276 z"
       id="path6"
       inkscape:connector-curvature="0" /></g></svg>